<svg width="128" height="128" viewBox="0 0 128 128" xmlns="http://www.w3.org/2000/svg">
  <defs>
    <linearGradient id="grad1" x1="0%" y1="0%" x2="100%" y2="100%">
      <stop offset="0%" style="stop-color:#4F46E5;stop-opacity:1" />
      <stop offset="100%" style="stop-color:#7C3AED;stop-opacity:1" />
    </linearGradient>
  </defs>
  
  <!-- Background circle -->
  <circle cx="64" cy="64" r="60" fill="url(#grad1)" stroke="#E5E7EB" stroke-width="2"/>
  
  <!-- Brain/Intelligence symbol -->
  <path d="M64 25 C 45 25, 30 40, 30 60 C 30 80, 45 95, 64 95 C 83 95, 98 80, 98 60 C 98 40, 83 25, 64 25 Z" 
        fill="none" stroke="white" stroke-width="3" stroke-linecap="round"/>
  
  <!-- Neural network nodes -->
  <circle cx="45" cy="45" r="4" fill="white"/>
  <circle cx="83" cy="45" r="4" fill="white"/>
  <circle cx="45" cy="83" r="4" fill="white"/>
  <circle cx="83" cy="83" r="4" fill="white"/>
  <circle cx="64" cy="64" r="6" fill="white"/>
  
  <!-- Connections -->
  <line x1="45" y1="45" x2="64" y2="64" stroke="white" stroke-width="2"/>
  <line x1="83" y1="45" x2="64" y2="64" stroke="white" stroke-width="2"/>
  <line x1="45" y1="83" x2="64" y2="64" stroke="white" stroke-width="2"/>
  <line x1="83" y1="83" x2="64" y2="64" stroke="white" stroke-width="2"/>
  
  <!-- Book/PDF symbol -->
  <rect x="35" y="100" width="58" height="8" rx="2" fill="white" opacity="0.8"/>
  <rect x="37" y="102" width="54" height="4" fill="url(#grad1)" opacity="0.3"/>
</svg>
